<?xml version="1.0" standalone="no"?><svg xmlns="http://www.w3.org/2000/svg" viewBox="0 0 1440 320"><path fill="#4CAF50" fill-opacity="1" d="M0,128L15,117.3C30,107,60,85,90,80C120,75,150,85,180,85.3C210,85,240,75,270,90.7C300,107,330,149,360,181.3C390,213,420,235,450,213.3C480,192,510,128,540,122.7C570,117,600,171,630,170.7C660,171,690,117,720,117.3C750,117,780,171,810,165.3C840,160,870,96,900,101.3C930,107,960,181,990,181.3C1020,181,1050,107,1080,117.3C1110,128,1140,224,1170,245.3C1200,267,1230,213,1260,213.3C1290,213,1320,267,1350,256C1380,245,1410,171,1425,133.3L1440,96L1440,0L1425,0C1410,0,1380,0,1350,0C1320,0,1290,0,1260,0C1230,0,1200,0,1170,0C1140,0,1110,0,1080,0C1050,0,1020,0,990,0C960,0,930,0,900,0C870,0,840,0,810,0C780,0,750,0,720,0C690,0,660,0,630,0C600,0,570,0,540,0C510,0,480,0,450,0C420,0,390,0,360,0C330,0,300,0,270,0C240,0,210,0,180,0C150,0,120,0,90,0C60,0,30,0,15,0L0,0Z"></path></svg>